<svg xmlns="http://www.w3.org/2000/svg" viewBox="0 0 64 64"><rect width="64" height="64" rx="14" fill="#f5ead8"/><g fill="#201e1d" stroke="#201e1d" stroke-width="5" stroke-linejoin="round" transform="translate(8.32 15.23) scale(0.17899)"><path d="M4.3 23.3l5.8-4.1l4.5-2.8l4.7-2.4l6.4-2.9l-3.4-1.3l3.3 6.2l3 4.9l3.2 4.8l2.3 3.1l2.7 3l3 2.9l3.7 2.7l2.2 1.1l8.1-2l5.1-7.7l3-4.2l2.1-2.6l2.2-2.3l2.3-2.1l2.2-1.7l2.1-1l-1.8-.2l-4.1-2.4l2.4 5.4l2.8 5.4l2.3 3.6l1.3 1.7l3.1 3.4l1.8 1.6l2.1 1.5l2.4 1.3l2.7 1l2.9 .6l3.6 0l6.3-5.2l3.1-5.6l1.7-2.5l1.7-1.9l.9-.8l1.5-.9l1.1-.3l1.3 .2l-3.7-3l1.7 4l2.2 3.8l2.6 3.6l3.1 3.4l1.8 1.5l3.8 2.7l4.2 2.1l4.3 1.5l9.3-3.3l4.4-7.8l2.8-4.1l2-2.5l3.1-3.3l2.1-1.7l2.1-1.2l1.9-.5l-5.4-2.6l2.9 5.1l3.3 4.9l3.9 4.8l3 3.1l3.5 2.8l2.1 1.2l2.2 1.1l2.4 .8l2.5 .5l2.7 .2l4-.6l3.7-3.7l3.7-5.8l3-4l2.2-2.4l2.3-2.2l2.4-1.8l2.5-1.5l2.6-.9l1.3-.3l-2.6-1.6l2.7 4.4l3.5 4.7l2.6 2.9l2.9 2.9l3.4 2.5l3.8 2l2.1 .8l2.2 .5l2.2 .3l3.9-.6l1.9-3l2.3-4.7l1.8-3l2-2.7l3.4-3.7l2.6-2l2.9-1.5l1.5-.6l3.3-.7l-.2-3.2l-2 0l-2 .2l-1.9 .4l-3.8 1.5l-3.4 2.1l-3.1 2.5l-1.4 1.4l-2.6 3l-2.2 3.1l-2.1 3.3l-.9 1.6l.3 .3l.2-.6l-2.7-.7l-2.5-1.3l-2.4-1.9l-2.3-2.3l-2.1-2.6l-1.9-2.7l-1.8-3l-2.8-5l-5.8-2.3l-2.3 .4l-4.3 1.2l-4 1.9l-3.6 2.4l-3.1 2.7l-4.3 4.3l-3.7 4.6l-3.3 4.8l2-1.3l-2-.4l-2-1l-2.1-1.6l-2.1-2.1l-2-2.4l-2.8-4l-1.7-2.9l-2.4-4.5l-7.8-4.4l-2.6 .4l-2.5 .8l-2.3 1.1l-4 2.5l-3.4 2.8l-3 3.1l-3.8 4.8l-3.3 4.9l-3.7 6.4l6.3-3l-2.6-.9l-2.3-1.3l-3.2-2.4l-1.8-2l-1.6-2.3l-1.4-2.5l-1.2-2.8l-5.8-5.6l-2.8-.6l-3.1 0l-3 .4l-2.9 1l-2.5 1.3l-2.2 1.5l-3.6 3.4l-2.7 3.6l-2.2 3.6l-2.8 5.5l4.3-2.8l-1.4-.4l-1.8-1l-1.8-1.7l-1-1.1l-1.8-2.3l-1.7-2.7l-2.3-4.4l-1.4-3.1l-5.7-5.3l-5.3 .9l-2.3 1.2l-2 1.3l-1.9 1.3l-3.2 3l-2.7 3.1l-3.7 4.8l-4.1 6.5l-3.4 6.3l5.1-2l-2.2-1.1l-2.4-1.7l-2.4-2.2l-2.3-2.4l-2.3-2.6l-3.2-4.1l-6.3-9.2l-6.3-.9l-3.3 1.9l-6.3 4.2l-4.5 3.6l-4 4.1l-1.3 1.5l-1 1.6z"/><path d="M7.2 95.5l8.2-4.3l4.9-2.2l5-1.8l5.1-1.2l-3.3-1.5l2.3 5.5l1.8 3.7l3.2 5.2l2.7 3.4l3.1 3.1l3.7 2.7l2 1.1l2.2 1l2.2 .7l7.4-3.4l2.8-4.6l1.9-2.9l2.1-2.7l2.2-2.5l2.2-2.1l2.3-1.7l2.3-1.1l2-.4l-3.9-1.7l4.9 6l4 4.4l4.3 4.3l3.1 2.8l3.5 2.6l4 2.4l2.4 1l2.7 .8l8.7-4.1l2.8-4.4l2-2.7l3.3-3.7l2.3-2.3l2.4-1.9l2.5-1.7l2.6-1.4l2.8-1.1l-7.5-4.2l2.2 5.8l2.8 5.7l2.4 3.7l2.8 3.6l3.4 3.3l1.9 1.6l2.1 1.3l2.3 1.2l2.3 1l2.5 .7l7.3-.7l2.9-3.5l3.1-4.4l3.2-4.2l4.5-5.2l2.4-2.2l2.3-1.9l2.3-1.4l1.9-.6l-5.2-3l3.9 6.8l3.2 5.1l3.7 4.9l2.8 3.2l3.4 3.1l1.9 1.4l2.3 1.3l2.5 1.1l3.1 .6l6.8-4.3l4-8l3.7-6l2-2.7l2.1-2.4l2.3-2.1l1.2-.8l-2-.5l-2.2-1l3.4 7.1l3.1 5.2l3.7 4.9l2.9 3l3.3 2.7l1.9 1.2l2 1l2.1 .8l4.3 .4l2.4-3.3l2.3-5.1l2.5-4.9l2.7-4.7l2-2.9l2.2-2.7l1.2-1.2l1.3-1.1l1.4-.9l1.4-.6l-.7-3.1l-2.1 .5l-2 .9l-1.8 1.1l-3.1 2.6l-2.7 3l-3.5 4.7l-4.2 6.5l-2.8 5.1l.8 0l.7-.7l-2.7-1.5l-2.4-2l-2.2-2.4l-2-2.7l-1.8-3l-1.6-3.1l-1.5-3.2l-2-5l-3.5-4.5l-5.4 1.2l-2.1 1.2l-1.8 1.3l-3.2 2.9l-2.9 3.1l-3.7 4.9l-3.3 5l-3.8 6.9l4.5-2.1l-1.5-.6l-2.1-1.5l-2.1-2.1l-2-2.6l-1.9-2.8l-2.8-4.4l-4.2-8l-8.1-4l-2.8 .7l-2.5 .9l-4.3 2.3l-3.6 2.7l-3.2 2.8l-4.3 4.5l-3.8 4.7l-4.7 6.3l4.6-1.5l-2.2-.8l-2.1-1.3l-2-1.7l-1.9-2.2l-1.7-2.5l-1.6-2.8l-1.4-3l-1.8-4.8l-10.4-4.6l-4.2 1.7l-4 2.1l-3.8 2.6l-3.3 2.8l-3.1 3l-4.1 4.9l-2.4 3.4l-3.2 5.2l6.1-2.4l-2-.7l-2.5-1.4l-2.5-1.8l-2.6-2.2l-5.1-4.8l-7.4-8l-7.1-2.7l-2.7 .5l-2.6 .9l-2.3 1.1l-2.1 1.3l-3.6 2.9l-3 3.2l-3.8 5.1l-3.2 5.1l-2.8 5.4l4.8-1.9l-2.7-.8l-1.3-.6l-2.5-1.6l-2.4-2l-2.2-2.3l-3.1-4.1l-1.8-3l-2.5-4.7l-5.8-3l-5.7 2.2l-3.6 1.7l-3.4 2l-3.3 2.1l-3.1 2.4l-2.9 2.6l-1.3 1.4z"/><path d="M7.1 167.6l1.8-.7l13.9-6.1l7-2.9l-3.2-1.6l.1 1l1.1 3.8l2.2 5.7l2.9 5.7l2.6 3.6l1.6 1.8l1.8 1.6l2.1 1.4l2.4 1.3l2.6 .8l2.8 .4l6.5-3.2l2.6-5.4l1.7-3.1l2.8-4.4l2-2.7l2.2-2.5l2.4-2.2l2.4-1.8l2.6-1.4l-5.4-1.5l-1.3-1l2.5 7.8l1.7 3.9l1.9 3.8l2.5 3.9l1.4 1.9l3.3 3.5l2 1.6l2.1 1.5l2.4 1.2l2.5 1l2.6 .7l6.6-.6l3.4-3.7l5.4-7.3l4.6-5.3l2.4-2.4l2.5-2.1l2.5-1.8l2.5-1.4l-7.8-2.8l4.2 7l3.7 5.2l4.4 4.9l3.5 3l4 2.7l2.2 1.2l2.4 1l2.6 .7l2.6 .5l2.7 .1l7.5-5.3l3-6.2l1.7-2.9l1.9-2.6l1.9-2.2l2.1-1.7l2.2-1.3l1-.4l-5.8-3.1l2.1 4.9l2.9 5.6l2.3 3.6l1.4 1.8l3 3.4l3.5 3.1l2 1.4l2.2 1.2l2.3 .9l2.4 .8l2.5 .5l6.7-1.7l1.8-3.3l2.3-4.8l1.7-3.1l1.9-2.9l2.1-2.7l3.4-3.6l2.6-2l2.7-1.6l2.9-1.2l-4.2-1.6l2.9 5.2l3.2 5.1l2.4 3.3l2.7 3.2l3.1 2.9l1.8 1.4l1.9 1.2l2.2 1l2.3 .8l5-2.9l2.4-5l2.7-4.8l3.1-4.3l2.5-2.6l2.6-2.2l3-1.7l1.6-.6l3.4-.8l-.2-3.2l-2.1 0l-2.1 .3l-2 .5l-3.9 1.7l-3.5 2.3l-3.1 2.7l-4 4.6l-3.4 5l-3 5.2l2.7-.9l-1.3-.5l-2.4-1.6l-2.4-2.3l-2.1-2.7l-2-2.9l-1.8-3.1l-4-8.3l-6.6-3.2l-4.3 1.4l-4 2.1l-3.6 2.5l-3.3 2.9l-2.9 3.1l-3.8 5l-3.3 5.3l-1.9 3.6l.2 .2l3.2-1.7l-2.5-.8l-2.3-1.3l-2.2-1.7l-2-2.3l-1.9-2.6l-2.4-4.3l-1.5-3.2l-2.2-5.7l-9-3.4l-2.5 .9l-2.4 1.1l-2.2 1.3l-2 1.4l-3.5 3.2l-3 3.5l-2.5 3.7l-2.1 3.6l-2.8 5.7l5.2-3.1l-2.2-.3l-2.3-.8l-2.3-1.4l-3.4-2.9l-2.2-2.4l-3-4l-1.9-2.9l-2.7-4.6l-10.6-3.3l-2.2 1.1l-3.9 2.6l-3.5 2.7l-3.1 3l-2.9 3.1l-3.9 4.7l-5.9 8.2l4.1-1.5l-1-.2l-2.1-.9l-2-1.5l-2-2l-1.8-2.4l-1.7-2.7l-1.5-3.1l-1.4-3.1l-1.8-5l-2.4-4.7l-8.7-.4l-4 2.4l-3.6 3l-1.6 1.5l-2.9 3.3l-3.7 5.3l-2 3.6l-1.8 3.7l-1.7 3.7l-1.2 3.2l3.3-2.2l-2.2-.3l-2.1-1.1l-2.2-1.8l-2-2.4l-1.9-2.8l-1.7-3.1l-1.6-3.2l-2.6-6.1l-6.2-.9l-5.1 2.8l-6.7 4l-6.4 4.3l-3 2.5z"/></g></svg>
